<svg version="1.2" xmlns="http://www.w3.org/2000/svg" viewBox="0 0 857 810" width="857" height="810">
	<title>bell-svg</title>
	<defs>
		<clipPath clipPathUnits="userSpaceOnUse" id="cp1">
			<path d="m45.4 38.99h768.6v731.85h-768.6z"/>
		</clipPath>
	</defs>
	<style>
		.s0 { fill: #000000 } 
	</style>
	<g id="surface1">
		<g id="Clip-Path" clip-path="url(#cp1)">
			<g id="Layer">
				<path id="Layer" class="s0" d="m249.5 96.8l-52.4-52.3c-87.7 66.8-145.6 170-151.1 287.2h73.3c5.6-96.9 55.7-181.8 130.2-234.9zm490.8 234.9h73.2c-5.5-117.2-63.4-220.4-151.1-287.2l-52.2 52.1c74.4 53.3 124.4 138.2 130.1 235.1zm-72.4 18.3c0-112.5-78.2-206.4-183.2-231.2v-24.9c0-30.4-24.5-54.9-54.9-54.9-30.4 0-55 24.5-55 54.9v24.9c-105 24.8-183.2 118.7-183.2 231.2v201.3l-73.2 73.2v36.6h622.8v-36.6l-73.3-73.2zm-238.1 420.8c5.1 0 10-0.5 14.8-1.5 23.8-4.9 43.4-21.4 52.8-43.1 3.6-8.8 5.6-18.3 5.6-28.6h-146.5c0 40.4 32.8 73.2 73.3 73.2z"/>
			</g>
		</g>
	</g>
</svg>