<svg version="1.2" xmlns="http://www.w3.org/2000/svg" viewBox="0 0 2534 2525" width="2534" height="2525"><style></style><path fill-rule="evenodd" d="m2055.9 1389.3l210.2 182.2-199.5 340.8-265-88.4c-67.6 56.1-142.7 99.3-224 128.4l-54.7 269.7h-397.7l-54.7-269.8c-80.5-29-156.9-72.9-223.9-128.4l-265.1 88.4-199.5-340.9 210.2-182.1c-7.8-42.7-11.7-85.4-11.7-127.2 0-41.8 3.9-84.5 11.7-127.2l-210.2-182.1 199.5-340.9 265 88.3c67.6-56.1 142.6-99.3 224-128.4l54.7-269.7h397.7l54.7 269.8c80.5 29 156.9 72.9 223.8 128.4l265.2-88.4 199.5 340.9-210.2 182.1c7.8 42.7 11.6 85.4 11.6 127.2 0 41.8-3.8 84.5-11.6 127.3zm-336.6-127.3c0-218-177.3-395.3-395.3-395.3-217.9 0-395.3 177.3-395.3 395.3 0 218 177.4 395.3 395.3 395.3 218 0 395.3-177.3 395.3-395.3z"/></svg>