<?xml version="1.0" encoding="iso-8859-1"?>
<!-- Uploaded to: SVG Repo, www.svgrepo.com, Generator: SVG Repo Mixer Tools -->
<!DOCTYPE svg PUBLIC "-//W3C//DTD SVG 1.1//EN" "http://www.w3.org/Graphics/SVG/1.1/DTD/svg11.dtd">
<svg fill="#000000" version="1.1" id="Capa_1" xmlns="http://www.w3.org/2000/svg" xmlns:xlink="http://www.w3.org/1999/xlink" 
	 width="800px" height="800px" viewBox="0 0 731.698 731.698"
	 xml:space="preserve">
<g>
	<g>
		<path d="M588.082,288.98l-0.025-0.053c0.03,0.007,0.062,0.015,0.096,0.019C588.13,288.96,588.103,288.966,588.082,288.98z"/>
		<path d="M578.759,273.55c-0.003-0.001-0.005-0.001-0.006-0.001c0.001-0.016,0.006-0.032,0.006-0.047V273.55z"/>
	</g>
	<path d="M470.638,370.114c-1.161-31.979-23.336-38.693-43.404-46.792l-0.056-55.159l30.401-234.016
		c0.934-17.896-12.815-33.162-30.704-34.102c-17.902-0.932-33.17,12.808-34.114,30.712c0,0-22.276,137.631-33.214,204.895
		c-0.043-0.222-0.115,0.402-0.2,1.605c-0.573,1.046-0.976,2.15-1.091,3.319c-1.004-19.123-16.771-23.501-36.896-23.501
		c-20.813,0-38.372,4.623-38.372,25.421v4.801c-1.032-15.803-17.144-20.49-37.614-20.49c-20.813,0-37.685,4.794-37.685,25.616
		l0.057,5.927c-1.018-1.605-15.193-139.43-15.193-139.43c-1.189-16.886-10.708-32.023-28.74-29.572
		c-16.542,2.251-21.272,15.746-20.096,32.64l14.406,205.847l1.29,211.296c-2.107,17.395,10.12,46.752,24.884,50.249v93.26
		c0,27.083,16.356,49.059,43.448,49.059c0,0,111.608-0.136,113.242-0.33c24.727-0.816,48.651-20.936,48.651-45.689l-0.071-102.92
		c21.974-5.504,74.467-106.312,81.504-148.053C473.662,419.317,470.638,370.114,470.638,370.114z"/>
</g>
</svg>